<svg width="252" height="188" fill="none" xmlns="http://www.w3.org/2000/svg"><path d="M108.867 15.71c-7-7.44-16.568-14.11-26.769-14.108-12.615 0-22.544 8.468-25.331 20.642-7.841 34.25 31.55 44.714 48.329 67.835 6.576 9.062 4.359 21.113-6.29 26.014-6.318 2.908-14.692.766-18.6-3.739-4.217-4.862-3.913-14.128 3.25-18.279m25.411-78.365l.007 88.411c0 24.73 19.682 44.749 44.199 44.747M108.867 15.71h88.412m-44.206 133.158c0 14.24-2.586 30.146-17.066 37.531m17.066-37.531c24.517.002 44.199-20.017 44.199-44.747l.007-88.41m-44.206 133.157c0 14.24 2.586 30.146 17.066 37.531m-34.132 0h34.132m-34.132 0h-9.913M197.279 15.71c7-7.44 16.568-14.11 26.769-14.108 12.616 0 22.544 8.468 25.332 20.642 7.84 34.25-31.55 44.714-48.329 67.835-6.577 9.062-4.36 21.113 6.288 26.014 6.319 2.908 14.694.766 18.601-3.739 4.217-4.862 3.913-14.128-3.249-18.279M170.139 186.4h9.914m-60.471-69.171c4.222 10.557 13.029 18.786 23.906 22.078" stroke="#071D2B" stroke-width="2.5" stroke-miterlimit="10" stroke-linecap="round" stroke-linejoin="round"/><path d="M123.208 40.775c-.244-3.93 4.804-6.184 7.764-3.587 6.459 5.667 15.354 12.182 22.108 12.182 7.632 0 17.995-2.774 24.49-4.78 2.892-.892 5.868 1.388 5.651 4.407l-4.258 59.206c-.785 10.918-9.872 19.376-20.819 19.377h-9.922c-11.026.001-20.152-8.574-20.836-19.579l-4.178-67.226z" fill="#FFBF00"/><path d="M40.645 70.254l-4.467-13.917c-1-3.116-5.356-3.116-6.356 0l-4.467 13.917a8 8 0 01-7.617 5.555H3.348c-3.237 0-4.583 4.194-1.964 6.12l11.726 8.624a8 8 0 012.877 8.89l-4.491 13.992c-1 3.116 2.523 5.708 5.142 3.782l11.376-8.367-4.845 43.709A4 4 0 0027.145 157h11.71a4 4 0 003.975-4.441l-4.844-43.709 11.376 8.367c2.619 1.926 6.142-.666 5.142-3.782l-4.491-13.992a8 8 0 012.877-8.89l11.726-8.624c2.619-1.926 1.273-6.12-1.964-6.12h-14.39a8 8 0 01-7.617-5.555z" fill="#D4E7FF"/><path d="M65.999 171.382l-42.078-.001a8.32 8.32 0 00-8.321 8.321v3.368a3.328 3.328 0 003.328 3.328h55.391a3.328 3.328 0 003.328-3.328v-3.368a8.321 8.321 0 00-4.769-7.527m-6.88-.793l-9.68-.001m9.68.001c1.811-.001 3.329-1.52 3.329-3.328v-3.369a8.321 8.321 0 00-8.32-8.321H35.57a3.328 3.328 0 01-3.329-3.328v-3.368a8.32 8.32 0 018.321-8.321h12.123a8.32 8.32 0 018.321 8.321v1.794M39.21 141.347l3.31-41.55m11.046 35.624l-3.356-42.14m-1.303-37.316l4.489 13.815H67.92c2.325 0 3.291 2.975 1.41 4.342L57.58 82.66l4.488 13.815c.719 2.211-1.812 4.05-3.693 2.683L46.623 90.62l-11.752 8.538c-1.88 1.367-4.411-.472-3.693-2.683l4.49-13.815-11.753-8.538c-1.88-1.367-.914-4.342 1.41-4.342h14.527l4.489-13.815c.718-2.211 3.846-2.211 4.565 0z" stroke="#071D2B" stroke-width="2.5" stroke-miterlimit="10" stroke-linecap="round" stroke-linejoin="round"/></svg>