<svg width="252" height="188" fill="none" xmlns="http://www.w3.org/2000/svg"><path d="M50.467 53.682c0 .147.095 17.995 0 30.596-.242 31.933 22.158 56.269 46.889 75.426 1.827 1.416 4.33 1.643 6.257.367.984-.651 1.959-1.345 3.086-2.126 1.939-1.347 2.405-4.056.953-5.916l-13.861-17.76a78.667 78.667 0 01-16.571-44.82l-2.166-47.521c-.296-6.5-6.584-10.873-12.879-9.225-9.318 2.441-11.708 10.431-11.708 20.98z" fill="#D5F2A5"/><path d="M110.414 156.56c-32.325-18.878-51.696-34.171-56.524-80.777m-13.58-3.664c.096-12.6 0-30.45 0-30.596 0-10.547 6.39-18.537 15.71-20.978L111.125 4.33a10.002 10.002 0 015.646 0l55.103 16.214c9.319 2.44 15.709 10.43 15.709 20.978 0 .147-.095 17.995 0 30.596 0 48.692-28.842 79.479-69.133 101.016a9.56 9.56 0 01-9.007 0C69.152 151.597 40.31 120.81 40.31 72.118z" stroke="#071D2B" stroke-width="2.5" stroke-linecap="round" stroke-linejoin="round"/><path d="M237.959 13.875v6.857m0 10.286v6.857m-5.143-12h-6.857m24 0h-6.857" stroke="#071D2B" stroke-width="2.5" stroke-miterlimit="10" stroke-linecap="round" stroke-linejoin="round"/><path d="M221.313 149.389a48.995 48.995 0 01-43.706 8.784" stroke="#D4E7FF" stroke-width="24" stroke-miterlimit="10" stroke-linecap="round" stroke-linejoin="round"/><circle cx="188.861" cy="104" r="44" fill="#fff"/><circle cx="200.861" cy="98" r="31" fill="#FFBF00"/><path d="M173.361 145.192c-16.652-6.269-28.5-22.347-28.5-41.192 0-24.3 19.7-44 44-44 24.301 0 44 19.7 44 44 0 12.951-5.595 24.595-14.5 32.646" stroke="#071D2B" stroke-width="2.5" stroke-miterlimit="10" stroke-linecap="round" stroke-linejoin="round"/><path d="M173.362 146l-4.915 32.972c-.132.886.877 1.485 1.591.947l10.336-7.789a3 3 0 014.201.59l7.806 10.359c.536.712 1.665.42 1.789-.462l3.318-23.608a2.095 2.095 0 011.639-1.758v0a2.095 2.095 0 012.212.939l12.633 20.218c.472.755 1.622.563 1.822-.305l2.918-12.639a3 3 0 013.598-2.248l12.585 2.906c.876.202 1.553-.763 1.065-1.518l-23.458-36.275c-.691-1.069-2.191-1.225-3.161-.4a30.998 30.998 0 01-38.932 1.003 31 31 0 1148.839-16.783" stroke="#071D2B" stroke-width="2.5" stroke-linecap="round" stroke-linejoin="round"/></svg>