<svg width="74" height="73" viewBox="0 0 74 73" fill="none" xmlns="http://www.w3.org/2000/svg">
<path d="M28.8 58C27.4141 58 26.1241 57.6638 25.0301 57.083C21.4851 55.201 18.5018 51.0415 16.9091 47.3574C16.5111 46.4367 16.3 45.4394 16.3 44.4C16.3 43.195 15.8727 41.9829 15.0233 41.1282C13.2409 39.3346 12.3 36.8928 12.3 34.2C12.3 31.1116 13.6237 28.4125 15.9275 26.515C16.4856 26.0553 16.8 25.323 16.8 24.6C16.8 21.6599 18.625 19.0079 21.5217 17.4912C21.6303 17.4344 21.7 17.2 21.7 17.2C21.7 13.8 24.9 11 28.9 11C32.9 11 36.1 13.8 36.1 17.2V25.3C36.1 26.3 35.8 27.2 35.3 28L34.7001 28.8C34.4001 29.3 34.4 29.9 34.8 30.3L34.9001 30.4C35.6001 31.1 36 32.1 36 33.1V43.3C36 44 35.8001 44.7 35.4001 45.3C35.1001 45.8 35 46.5 35.3 47L35.5 47.3C35.8 47.9 36 48.5 36 49.2V51.7C36 55.2 32.8 58 28.8 58ZM28.8 13C25.9 13 23.6 14.9 23.6 17.2C23.6 17.4 23.6 17.6 23.7 17.9C23.8 18.4 23.5 18.8 23.1 19C20.5 20 18.8 22.3 18.8 24.6C18.8 25 18.9 25.5 19 26C19.0396 26.1979 19.0322 26.3801 18.984 26.5467C18.8309 27.0758 18.2469 27.3161 17.7841 27.6149C15.5362 29.066 14.3 31.3858 14.3 34.2C14.3 37.2 15.7 39.7 18.3 41.1C18.7 41.3 18.9 41.9 18.7 42.4C18.4 43.1 18.3 43.7 18.3 44.4C18.3 46.9 20.2 49.2 23 50.2C23.5 50.4 23.7 50.8 23.7 51.3C23.7 51.5 23.7 51.7 23.7 51.8C23.7 54.1 26 56 28.9 56C31.8 56 34.1 54.1 34.1 51.8V49.3C34.1 49 34.0001 48.7 33.9001 48.5L33.7001 48.2C33 47 33.1 45.5 33.8 44.4C34 44.1 34.1 43.8 34.1 43.5V33.2C34.1 32.7 33.9 32.3 33.6 32L33.5 31.9C32.4 30.8 32.3 29.1 33.1 27.8L33.7001 27C34 26.5 34.2001 26 34.2001 25.4V17.3C34 14.9 31.7 13 28.8 13Z" fill="#333333"/>
<path d="M24.0002 22.2001C23.7002 22.2001 23.5002 22.1001 23.3002 21.9001C22.2002 20.7001 21.7002 19.4001 21.7002 18.1001C21.7002 17.5001 22.1002 17.1001 22.7002 17.1001C23.3002 17.1001 23.7002 17.5001 23.7002 18.1001C23.7002 18.9001 24.1002 19.7001 24.8002 20.6001C25.0173 20.8172 25.0871 21.0932 25.0416 21.3642C24.9612 21.8431 24.4858 22.2001 24.0002 22.2001Z" fill="#333333"/>
<path d="M16.2 28.4998C15.9 28.4998 15.6 28.3998 15.4 28.0998C15.1 27.6998 15.2 26.9998 15.6 26.6998C17.3 25.3998 19.2 24.7998 21.2 24.7998C22.4 24.7998 23.6 24.9998 24.7 25.4998C25.2 25.6998 25.5 26.2998 25.3 26.7998C25.1 27.2998 24.5 27.5998 24 27.3998C23.1 27.0998 22.2 26.8998 21.3 26.8998C19.9248 26.8998 18.6973 27.2692 17.4906 28.008C17.0975 28.2486 16.661 28.4998 16.2 28.4998Z" fill="#333333"/>
<path d="M31.3 21.0998C31.167 21.0998 31.0316 21.0928 30.9093 21.0405C30.7006 20.9512 30.5223 20.7898 30.4103 20.5831C30.1866 20.1705 30.4655 19.616 30.2041 19.2263C30.1736 19.1809 30.1387 19.1385 30.1 19.0998C29.9 18.8998 29.7 18.6998 29.4 18.5998C28.8525 18.4173 28.3225 19.0857 27.7651 18.9358C27.5393 18.875 27.3379 18.7297 27.2 18.4998C26.9 17.9998 27 17.3998 27.5 17.0998C28.2 16.5998 29 16.4998 29.8 16.5998C30.6 16.7998 31.3 17.1998 31.8 17.8998C32.0928 18.3097 32.2484 18.7538 32.307 19.2122C32.3906 19.8654 32.2951 20.6492 31.7263 20.981C31.5906 21.0602 31.4453 21.0998 31.3 21.0998Z" fill="#333333"/>
<path d="M29.1 53.6C28.5 53.6 27.9 53.4 27.3 53C26.8 52.7 26.7 52.1 27 51.6C27.2347 51.2089 27.6529 51.0625 28.0633 51.1609C28.2995 51.2175 28.4706 51.4062 28.7067 51.4632C29.0171 51.5382 29.3778 51.4849 29.6329 51.2929C29.7273 51.2218 29.8137 51.1295 29.9 51C30.2 50.5 30.8 50.4 31.3 50.7C31.8 51 31.9 51.6 31.6 52.1C31.2149 52.6393 30.711 53.0598 30.1341 53.2703C29.7988 53.3926 29.457 53.6 29.1 53.6Z" fill="#333333"/>
<path d="M20.2002 37.6C20.0015 37.6 19.8022 37.5721 19.6204 37.4918C18.5624 37.0241 17.7923 35.9968 17.7002 34.8C17.7002 34 17.9002 33.2 18.5002 32.6C18.7097 32.3905 18.974 32.2907 19.2357 32.2863C19.7089 32.2783 20.1505 32.6568 20.2065 33.1266C20.2108 33.1629 20.2133 33.1992 20.2139 33.2355C20.2219 33.7087 19.7687 34.0653 19.7104 34.5349C19.7036 34.5895 19.7002 34.6448 19.7002 34.7C19.7002 34.9841 19.797 35.2359 19.9724 35.4187C20.2521 35.7104 20.719 35.7306 20.9717 36.0459C21.3843 36.5605 21.0797 37.4485 20.4328 37.5771C20.3562 37.5924 20.2782 37.6 20.2002 37.6Z" fill="#333333"/>
<path d="M24.7001 31.2998C24.2755 31.2998 23.9151 30.9847 23.6266 30.6731C23.1036 30.1081 22.7786 29.3848 22.7001 28.5998C22.5001 26.4998 23.9001 24.5998 26.0001 24.3998C27.0001 24.2998 28.0001 24.5998 28.8001 25.1998C29.0238 25.3676 29.1537 25.6605 29.1548 25.9561C29.1564 26.4292 28.7649 26.8704 28.2972 26.9424C28.2466 26.9502 28.1953 26.9543 28.1439 26.9544C27.6707 26.9561 27.3194 26.5209 26.8643 26.3913C26.6346 26.3259 26.4043 26.2998 26.2001 26.2998C25.2001 26.3998 24.5001 27.2998 24.6001 28.2998C24.7001 28.7998 24.9001 29.1998 25.3001 29.4998C25.4847 29.6382 25.6054 29.8619 25.6426 30.1019C25.7297 30.6643 25.2693 31.2998 24.7001 31.2998Z" fill="#333333"/>
<path d="M24.2002 35.6C23.5917 35.6 23.0898 34.8986 23.2776 34.3198C23.3449 34.1124 23.4858 33.9286 23.7002 33.8C24.2002 33.5 24.5002 32.9 24.5002 32.3C24.5002 31.8 24.4002 31.4 24.1002 31.1C23.7002 30.7 23.8002 30.1 24.2002 29.7C24.6002 29.3 25.2002 29.4 25.6002 29.8C26.2002 30.5 26.5002 31.4 26.5002 32.3C26.5002 33.4009 26.0699 34.3583 25.27 35.1117C24.9815 35.3834 24.5966 35.6 24.2002 35.6Z" fill="#333333"/>
<path d="M34.1 32.1002C33.8 32.1002 33.6 32.0002 33.4 31.8002C32.8 31.2002 32 31.0002 31.3 31.2002C30.8 31.3002 30.2 31.0002 30.1 30.4002C30 29.9002 30.3 29.3002 30.9 29.2002C32.3 28.9002 33.8 29.4002 34.8 30.4002C35.2 30.8002 35.2 31.4002 34.8 31.8002C34.6 32.0002 34.3 32.1002 34.1 32.1002Z" fill="#333333"/>
<path d="M20.2001 43.5001C18.6001 43.5001 17.1001 43.0001 15.9001 42.1001C15.5001 41.8001 15.4001 41.1001 15.7001 40.7001C16.0001 40.3001 16.7001 40.2001 17.1001 40.5001C18.0001 41.2001 19.1001 41.5001 20.2001 41.5001C20.8001 41.5001 21.2001 41.9001 21.2001 42.5001C21.2001 43.1001 20.8001 43.5001 20.2001 43.5001Z" fill="#333333"/>
<path d="M26.1 46.9001C25.7 46.9001 25.3 46.6 25.1 46.2C24.9 45.7 25.3 45.1 25.8 45C25.8759 44.9747 25.9519 44.943 26.0246 44.9049C26.4436 44.6851 26.6787 44.1821 26.632 43.7112C26.5945 43.3325 26.3756 42.9879 26 42.8C25.6 42.6 25.2 42.6 24.8 42.8C24.3 43.1 23.7 42.9001 23.4 42.4001C23.1 41.9001 23.3 41.3 23.8 41C24.8 40.4 25.9 40.4 26.9 41C28.5 41.8 29 43.8 28.2 45.3C27.8313 46.0375 27.2076 46.52 26.4858 46.8259C26.3674 46.8761 26.2285 46.9001 26.1 46.9001Z" fill="#333333"/>
<path d="M27.4999 43.8001C27.0999 43.8001 26.7999 43.6001 26.5999 43.3001C25.9999 42.2001 25.9999 40.8001 26.5999 39.7001C27.0999 38.8001 27.8999 38.1001 28.8999 37.8001C29.8999 37.5001 30.9999 37.6001 31.8999 38.1001C32.3999 38.4001 32.5999 39.0001 32.2999 39.5001C31.9999 40.0001 31.3999 40.2001 30.8999 39.9001C30.8682 39.8842 30.8352 39.869 30.8011 39.8545C29.9834 39.5061 28.9177 39.8231 28.4622 40.5864C28.4397 40.6241 28.4189 40.6621 28.3999 40.7001C28.0999 41.3001 28.0999 41.9001 28.3999 42.5001C28.6021 42.837 28.5772 43.2194 28.3864 43.4941C28.1981 43.7655 27.8302 43.8001 27.4999 43.8001Z" fill="#333333"/>
<path d="M32.5001 47.7002C32.1001 47.7002 31.7001 47.5002 31.6001 47.1002C31.4001 46.6002 31.6001 46.0002 32.2001 45.8002C32.8001 45.6002 33.2001 45.2002 33.6001 44.7002C33.9001 44.2002 34.5001 44.1002 35.0001 44.5002C35.5001 44.8002 35.6001 45.4002 35.2001 45.9002C34.684 46.5884 34.0199 47.1286 33.2715 47.5207C33.0401 47.642 32.7613 47.7002 32.5001 47.7002Z" fill="#333333"/>
<path d="M22.6001 52.1C22.3001 52.1 22 52 21.8 51.8C21.4 51.4 21.5001 50.8 21.9001 50.4L23.3 49.2C23.5152 48.9848 23.8173 48.9143 24.0971 48.9574C24.5648 49.0294 24.9717 49.4688 24.9541 49.9417C24.944 50.2108 24.8156 50.4844 24.6001 50.7L23.2001 51.9C23.1001 52 22.8001 52.1 22.6001 52.1Z" fill="#333333"/>
<path d="M45.2 58C41.2 58 38 55.2 38 51.8V49.3C38 48.6 38.2 48 38.5 47.4L38.7 47.1C39 46.6 39 45.9 38.7 45.4C38.3 44.8 38.1 44.1 38.1 43.4V33.2C38.1 32.2 38.5 31.3 39.2 30.5L39.3 30.4C39.4584 30.2416 39.5698 30.0361 39.6217 29.8209C39.776 29.1807 39.216 28.624 38.8507 28.0761L38.8 28C38.3 27.2 38 26.3 38 25.3V17.2C38 13.8 41.2 11 45.2 11C49.2 11 52.4 13.8 52.4 17.2C52.4 17.3226 52.4697 17.4344 52.5783 17.4912C55.4751 19.0079 57.3 21.6599 57.3 24.6C57.3 25.3194 57.6243 26.0465 58.1849 26.4975C60.4811 28.3446 61.8 31.1171 61.8 34.2C61.8 36.8813 60.8049 39.3139 59.0599 41.1053C58.2233 41.9642 57.8 43.201 57.8 44.4C57.8 45.458 57.5705 46.4722 57.1475 47.4066C55.5092 51.0261 52.5973 55.125 49.1077 57.0243C47.9744 57.6411 46.6321 58 45.2 58ZM45.2 13C42.3 13 40 14.9 40 17.2V25.3C40 25.9 40.2 26.4 40.5 26.9L41.1 27.7C42 29 41.8 30.7 40.7 31.8L40.6 31.9C40.3 32.2 40.1 32.7 40.1 33.1V43.3C40.1 43.3583 40.1038 43.4205 40.1113 43.4842C40.1729 44.0028 40.5837 44.4009 40.775 44.8869C41.1738 45.9 41.0647 47.1127 40.5 48L40.3 48.3C40.1 48.7 40 49 40 49.3V51.8C40 54.1 42.3 56 45.2 56C48.1 56 50.4 54.1 50.4 51.8C50.4 51.4675 50.3173 51.1185 50.4365 50.808C50.5392 50.5403 50.7782 50.3287 51.1 50.2C54 49.2 55.8 46.9 55.8 44.4C55.8 43.7 55.7 43.1 55.4 42.4C55.3033 42.1582 55.3001 41.9163 55.3679 41.6971C55.5153 41.2206 56.0272 40.9909 56.443 40.7155C58.6301 39.267 59.8 36.9424 59.8 34.2C59.8 31.1 58.3 28.6 55.6 27.2C55.2 27 55 26.5 55.1 26C55.2 25.5 55.3 25.1 55.3 24.6C55.3 22.2 53.6 20 51 19C50.8168 18.9084 50.6546 18.7539 50.5422 18.5749C50.292 18.1765 50.5 17.6703 50.5 17.2C50.5 14.9 48.1 13 45.2 13Z" fill="#333333"/>
<path d="M49.9999 22.2C49.7999 22.2 49.4999 22.1 49.2999 21.9C48.8999 21.5 48.8999 20.9 49.1999 20.5C49.8999 19.7 50.2999 18.9 50.2999 18C50.2999 17.4 50.6999 17 51.2999 17C51.8999 17 52.2999 17.4 52.2999 18C52.2999 19.0612 51.9668 20.1223 51.246 21.1291C50.9139 21.5931 50.5705 22.2 49.9999 22.2Z" fill="#333333"/>
<path d="M57.8001 28.5002C57.3756 28.5002 57.0356 28.1622 56.6785 27.9325C55.5049 27.1776 54.1903 26.8002 52.8001 26.8002C51.9001 26.8002 50.9001 27.0002 50.1001 27.3002C49.6001 27.5002 49.0001 27.3002 48.8001 26.7002C48.6001 26.2002 48.8001 25.6002 49.4001 25.4002C50.5001 25.0002 51.7001 24.7002 52.9001 24.7002C54.9001 24.7002 56.8001 25.4002 58.5001 26.6002C58.9001 26.9002 59.0001 27.6002 58.7001 28.0002C58.4001 28.4002 58.1001 28.5002 57.8001 28.5002Z" fill="#333333"/>
<path d="M42.6999 21.1002C42.1999 21.1002 41.7999 20.8002 41.6999 20.3002C41.4999 19.5002 41.6999 18.7002 42.1999 18.0002C42.6999 17.3002 43.3999 16.8002 44.1999 16.7002C44.9999 16.5002 45.7999 16.7002 46.4999 17.2002C46.9999 17.5002 47.0999 18.1002 46.7999 18.6002C46.5653 18.9913 46.147 19.1376 45.7367 19.0393C45.5005 18.9826 45.3294 18.794 45.0933 18.7369C44.7829 18.662 44.4222 18.7153 44.1671 18.9073C44.1501 18.9201 44.1333 18.9336 44.1168 18.9479C43.9488 19.0929 43.7977 19.2745 43.7412 19.4891C43.7091 19.6107 43.702 19.7448 43.7004 19.8816C43.6995 19.9604 43.7105 20.039 43.7143 20.1178C43.7333 20.5053 43.4834 20.9235 43.1382 21.1121C43.0225 21.1754 42.8319 21.1002 42.6999 21.1002Z" fill="#333333"/>
<path d="M44.9001 53.6001C44.4917 53.6001 44.094 53.4654 43.7165 53.3094C43.1603 53.0797 42.6742 52.7239 42.3001 52.2001C42.0001 51.7001 42.1001 51.1001 42.6001 50.8001C42.8254 50.6649 43.0711 50.6109 43.3004 50.6382C43.8736 50.7064 44.1525 51.4176 44.7001 51.6001C45.2476 51.7826 45.7776 51.1141 46.335 51.2641C46.5608 51.3249 46.7622 51.4702 46.9001 51.7001C47.2001 52.2001 47.1001 52.8001 46.6001 53.1001C46.1001 53.4001 45.5001 53.6001 44.9001 53.6001Z" fill="#333333"/>
<path d="M53.8 37.5999C53.4 37.5999 53 37.2999 52.8 36.8999C52.6 36.3999 52.9 35.7999 53.5 35.5999C53.9 35.4999 54.3 35.0999 54.3 34.5999C54.3 34.2999 54.2 33.9999 54 33.7999C53.6 33.3999 53.7 32.7999 54.1 32.3999C54.5 31.9999 55.1 32.0999 55.5 32.4999C56.1 33.0999 56.3 33.8999 56.3 34.6999C56.2081 35.8941 55.5256 36.9195 54.4073 37.3886C54.2094 37.4716 54.0146 37.5999 53.8 37.5999Z" fill="#333333"/>
<path d="M49.3 31.3001C49 31.3001 48.7 31.2001 48.5 30.9001C48.2 30.5001 48.2 29.8001 48.6 29.5001C49 29.2001 49.2 28.8001 49.3 28.3001C49.4 27.3001 48.7 26.4001 47.7 26.3001C47.2 26.2001 46.7 26.4001 46.4 26.7001C46.177 26.9231 45.8918 26.9907 45.6137 26.9376C45.149 26.8487 44.792 26.4073 44.7862 25.9342C44.7827 25.6462 44.8819 25.3637 45.1 25.2001C45.9 24.5001 46.9 24.3001 47.9 24.4001C50 24.6001 51.5 26.5001 51.2 28.6001C51.119 29.4098 50.7758 30.154 50.2234 30.7264C49.9763 30.9825 49.6559 31.3001 49.3 31.3001Z" fill="#333333"/>
<path d="M49.8 35.6001C49.3751 35.6001 49.0135 35.2897 48.7092 34.9932C47.9784 34.2811 47.5 33.2748 47.5 32.2001C47.5 31.2001 47.8 30.3001 48.4 29.7001C48.6095 29.4906 48.8738 29.3908 49.1356 29.3864C49.6087 29.3784 50.0503 29.7569 50.1063 30.2267C50.1106 30.263 50.1131 30.2993 50.1137 30.3356C50.1217 30.8087 49.6768 31.156 49.5623 31.6151C49.5182 31.7919 49.5 31.9869 49.5 32.2001C49.5 32.8001 49.8 33.4001 50.3 33.7001C50.8 34.0001 50.9 34.6001 50.6 35.1001C50.4 35.4001 50.1 35.6001 49.8 35.6001Z" fill="#333333"/>
<path d="M39.8999 32.1002C39.5999 32.1002 39.3999 32.0002 39.1999 31.8002C38.7999 31.4002 38.7999 30.8002 39.1999 30.4002C40.1999 29.4002 41.6999 28.9002 43.0999 29.2002C43.5999 29.3002 43.9999 29.8002 43.8999 30.4002C43.7999 30.9002 43.2999 31.3002 42.6999 31.2002C41.9999 31.1002 41.0999 31.3002 40.5999 31.8002C40.3999 32.0002 40.1999 32.1002 39.8999 32.1002Z" fill="#333333"/>
<path d="M53.8 43.5001C53.2 43.5001 52.8 43.1001 52.8 42.5001C52.8 41.9001 53.2 41.5001 53.8 41.5001C54.9 41.5001 56.0001 41.1001 56.9001 40.5001C57.3001 40.2001 58 40.3001 58.3 40.7001C58.6 41.1001 58.5 41.8001 58.1 42.1001C56.8 43.0001 55.4 43.5001 53.8 43.5001Z" fill="#333333"/>
<path d="M47.9 46.9C47.7007 46.9 47.5002 46.8809 47.314 46.81C46.6348 46.5517 46.0515 46.0031 45.7 45.3C44.9 43.7 45.5 41.8 47 41C48 40.5 49.1 40.5 50.1 41C50.3464 41.1478 50.4956 41.3685 50.5597 41.6142C50.6944 42.1302 50.39 42.7352 49.8723 42.8632C49.623 42.9248 49.3491 42.8996 49.1 42.8C48.7 42.6 48.3 42.6 47.9 42.8C47.3 43.1 47.1 43.9 47.4 44.4C47.6 44.7 47.8 44.9 48.1 45C48.6 45.2 48.9 45.7 48.8 46.2C48.7 46.7 48.3 46.9 47.9 46.9Z" fill="#333333"/>
<path d="M46.5 43.8C46.3 43.8 46.2 43.8 46 43.7C45.809 43.5854 45.6618 43.427 45.5695 43.2527C45.2888 42.7225 45.8132 42.1343 45.8247 41.5345C45.8307 41.223 45.7558 40.9115 45.6 40.6C45.4 40.1 45 39.8 44.5 39.7C44 39.6 43.5 39.6 43.1 39.8C42.6 40.1 42 39.9 41.7 39.4C41.4 38.9 41.6 38.3 42.1 38C43 37.5 44.1 37.4 45.1 37.7C46.1 38 46.9 38.7 47.4 39.6C48 40.7 48 42.1 47.4 43.2C47.2 43.6 46.9 43.8 46.5 43.8Z" fill="#333333"/>
<path d="M41.4999 47.7C41.3999 47.7 41.2999 47.7 41.0999 47.6C40.1999 47.2 39.3999 46.6 38.7999 45.8C38.4999 45.3 38.5999 44.7 38.9999 44.4C39.4999 44.1 40.0999 44.2 40.3999 44.6C40.7999 45.1 41.1999 45.5 41.7999 45.7C42.2999 45.9 42.5999 46.5 42.3999 47C42.2999 47.4 41.8999 47.7 41.4999 47.7Z" fill="#333333"/>
<path d="M51.4 52.1C50.913 52.1 50.513 51.7397 50.1433 51.4228L49.3 50.7C48.9 50.3 48.8 49.7 49.2 49.3C49.6 48.9 50.2 48.8 50.6 49.2L52 50.4C52.1925 50.5925 52.3155 50.8314 52.3467 51.072C52.4147 51.5957 51.928 52.1 51.4 52.1Z" fill="#333333"/>
<path d="M46 68H28C27.4 68 27 67.6 27 67V62C27 61.4 27.4 61 28 61H46C46.6 61 47 61.4 47 62V67C47 67.6 46.6 68 46 68ZM29 64.5C29 65.3284 29.6716 66 30.5 66H43.5C44.3284 66 45 65.3284 45 64.5C45 63.6716 44.3284 63 43.5 63H30.5C29.6716 63 29 63.6716 29 64.5Z" fill="#333333"/>
<path d="M42 72.9999H32C31.7 72.9999 31.4 72.8999 31.2 72.5999L27.2 67.5999C27 67.2999 26.9 66.8999 27.1 66.4999C27.3 66.1999 27.6 65.8999 28 65.8999H46C46.4 65.8999 46.7 66.0999 46.9 66.4999C47.1 66.7999 47 67.2999 46.8 67.5999L42.8 72.5999C42.6 72.8999 42.3 72.9999 42 72.9999ZM32.0496 70.4369C32.3343 70.7928 32.7652 70.9999 33.2209 70.9999H40.779C41.2347 70.9999 41.6657 70.7928 41.9503 70.4369C42.7361 69.4548 42.0368 67.9999 40.779 67.9999H33.2209C31.9632 67.9999 31.2639 69.4548 32.0496 70.4369Z" fill="#333333"/>
<path d="M37 8C36.4 8 36 7.6 36 7V1C36 0.4 36.4 0 37 0C37.6 0 38 0.4 38 1V7C38 7.6 37.6 8 37 8Z" fill="#F26522"/>
<path d="M72.8999 34H66.8999C66.2999 34 65.8999 33.6 65.8999 33C65.8999 32.4 66.2999 32 66.8999 32H72.8999C73.4999 32 73.8999 32.4 73.8999 33C73.8999 33.6 73.4999 34 72.8999 34Z" fill="#F26522"/>
<path d="M57 13.9998C56.7 13.9998 56.5 13.8998 56.3 13.6998C55.9 13.2998 55.9 12.6998 56.3 12.2998L57 11.5998C57.4 11.1998 58 11.1998 58.4 11.5998C58.8 11.9998 58.8 12.5998 58.4 12.9998L57.7 13.6998C57.5 13.8998 57.3 13.9998 57 13.9998Z" fill="#F26522"/>
<path d="M60.5 10.4999C60.2 10.4999 60 10.3999 59.8 10.1999C59.4 9.7999 59.4 9.1999 59.8 8.7999L61.9 6.6999C62.3 6.2999 62.9 6.2999 63.3 6.6999C63.7 7.0999 63.7 7.6999 63.3 8.0999L61.2 10.1999C61 10.3999 60.8 10.4999 60.5 10.4999Z" fill="#F26522"/>
<path d="M7 34H1C0.4 34 0 33.6 0 33C0 32.4 0.4 32 1 32H7C7.6 32 8 32.4 8 33C8 33.6 7.6 34 7 34Z" fill="#F26522"/>
<path d="M16.9002 13.9998C16.6002 13.9998 16.4002 13.8998 16.2002 13.6998L15.5002 12.9998C15.1002 12.5998 15.1002 11.9998 15.5002 11.5998C15.9002 11.1998 16.5002 11.1998 16.9002 11.5998L17.6002 12.2998C18.0002 12.6998 18.0002 13.2998 17.6002 13.6998C17.4002 13.8998 17.2002 13.9998 16.9002 13.9998Z" fill="#F26522"/>
<path d="M13.4 10.4998C13.1 10.4998 12.9 10.3998 12.7 10.1998L10.6 7.9998C10.2 7.5998 10.2 6.9998 10.6 6.5998C11 6.1998 11.6 6.1998 12 6.5998L14.1 8.6998C14.2824 8.88215 14.3816 9.10607 14.3977 9.33365C14.4375 9.89613 13.9639 10.4998 13.4 10.4998Z" fill="#F26522"/>
</svg>
